STARTFONT 2.1
FONT -Monotype-Nimrod-Regular-I-Normal--36-360-75-75-P-231-iso8859-5
SIZE 36 75 75
FONTBOUNDINGBOX 54 46 -6 -9

STARTPROPERTIES 24
FOUNDRY "Monotype"
FAMILY_NAME "Nimrod"
WEIGHT_NAME "Regular"
SLANT "I"
SETWIDTH_NAME "Normal"
ADD_STYLE_NAME ""
PIXEL_SIZE 36
POINT_SIZE 360
RESOLUTION_X 75
RESOLUTION_Y 75
SPACING "P"
AVERAGE_WIDTH 231
CHARSET_REGISTRY "iso8859"
CHARSET_ENCODING "5"
FACE_NAME "Nimrod Inclined ISO Latin Cyrillic"
_DEC_DEVICE_FONTNAMES "PS=nimrod-in-latcyrillic"
COPYRIGHT "Copyright (c) 1993 Monotype Typography Ltd."
CAP_HEIGHT 33
X_HEIGHT 25
WEIGHT 10
QUAD_WIDTH 27
DEFAULT_CHAR 160
FONT_DESCENT 9
FONT_ASCENT 37
ENDPROPERTIES

CHARS 191

STARTCHAR space
ENCODING 32
SWIDTH 250 0
DWIDTH 10 0
BBX 0 0 0 0
BITMAP
ENDCHAR

STARTCHAR exclam
ENCODING 33
SWIDTH 354 0
DWIDTH 13 0
BBX 12 29 3 0
BITMAP
00E0
01F0
01F0
01E0
03E0
03E0
03C0
03C0
0380
0380
0300
0700
0700
0600
0600
0400
0C00
0C00
0800
0800
0000
0000
0000
0000
7000
F800
F800
F800
7000
ENDCHAR

STARTCHAR quotedbl
ENCODING 34
SWIDTH 417 0
DWIDTH 16 0
BBX 11 11 6 15
BITMAP
3060
70E0
71E0
F1E0
E1C0
E1C0
C180
C180
C100
8300
8200
ENDCHAR

STARTCHAR numbersign
ENCODING 35
SWIDTH 667 0
DWIDTH 25 0
BBX 22 27 2 -1
BITMAP
018020
018060
018060
018060
018060
0300C0
0300C0
0300C0
FFFFFC
FFFFFC
060180
060180
060180
060180
0C0100
0C0300
0C0300
FFFFFC
FFFFFC
180200
180600
180600
180600
180600
300C00
300C00
300C00
ENDCHAR

STARTCHAR dollar
ENCODING 36
SWIDTH 500 0
DWIDTH 19 0
BBX 21 34 0 -5
BITMAP
000300
000300
001F00
00FFE0
01E670
038638
038638
070C78
070C78
070C78
079870
03D800
03F800
01F000
00F800
007C00
003E00
007F00
006F00
006F80
004780
70C380
F8C380
F8C380
F18380
F18700
718F00
399E00
1FF800
07C000
030000
020000
060000
060000
ENDCHAR

STARTCHAR percent
ENCODING 37
SWIDTH 1000 0
DWIDTH 38 0
BBX 27 28 8 -1
BITMAP
07C000C0
0E600180
1C700300
38700600
38700C00
70701800
70E01000
70E02000
E0E06000
E1C0C000
E1C18000
E3830000
67060000
3E040F80
00081CC0
001838E0
003070E0
006070E0
00C0E0E0
0180E1C0
0100E1C0
0201C1C0
0601C380
0C01C380
1801C700
3000CE00
60007C00
C0000000
ENDCHAR

STARTCHAR ampersand
ENCODING 38
SWIDTH 854 0
DWIDTH 32 0
BBX 30 29 2 0
BITMAP
0003C000
000FF000
001C3800
00381C00
00781C00
00701C00
00701C00
00703800
00703800
0078F000
007BC000
007F0000
00F80000
03FC1FFC
0F3C1FF8
1E3C03C0
381E0380
781E0380
700F0300
F00F0600
F0078C00
F0078C00
F003D810
F803E018
F801F030
7C03F8E0
3F0F7FC0
1FFC7F80
0FE01F00
ENDCHAR

STARTCHAR quoteright
ENCODING 39
SWIDTH 281 0
DWIDTH 11 0
BBX 7 10 5 19
BITMAP
1C
3E
3E
3E
16
0E
0C
18
70
C0
ENDCHAR

STARTCHAR parenleft
ENCODING 40
SWIDTH 354 0
DWIDTH 13 0
BBX 15 36 2 -7
BITMAP
000E
001C
0038
0070
00E0
01C0
0380
0700
0F00
0E00
1E00
1C00
3C00
3800
7800
7800
7800
F000
F000
F000
F000
F000
F000
F000
F000
7000
7000
7000
3800
3800
1800
1C00
0C00
0C00
0600
0200
ENDCHAR

STARTCHAR parenright
ENCODING 41
SWIDTH 354 0
DWIDTH 13 0
BBX 15 36 -2 -7
BITMAP
00C0
0040
0060
0070
0030
0038
0038
001C
001C
001C
001E
001E
001E
001E
001E
001E
001E
001E
001C
003C
003C
003C
0078
0078
00F0
00F0
01E0
01C0
03C0
0780
0700
0E00
1C00
3000
6000
C000
ENDCHAR

STARTCHAR asterisk
ENCODING 42
SWIDTH 469 0
DWIDTH 18 0
BBX 15 16 5 13
BITMAP
0040
01E0
01E0
71E0
F9C0
F980
7D8E
0F7E
03FE
0D1C
3D80
79C0
71E0
71E0
01E0
00C0
ENDCHAR

STARTCHAR plus
ENCODING 43
SWIDTH 667 0
DWIDTH 25 0
BBX 20 20 3 2
BITMAP
006000
006000
006000
006000
006000
006000
006000
006000
006000
FFFFF0
FFFFF0
006000
006000
006000
006000
006000
006000
006000
006000
006000
ENDCHAR

STARTCHAR comma
ENCODING 44
SWIDTH 281 0
DWIDTH 11 0
BBX 7 10 -1 -5
BITMAP
08
3E
3E
3E
3E
06
0C
18
70
E0
ENDCHAR

STARTCHAR minus
ENCODING 45
SWIDTH 667 0
DWIDTH 25 0
BBX 20 2 3 11
BITMAP
FFFFF0
FFFFF0
ENDCHAR

STARTCHAR period
ENCODING 46
SWIDTH 281 0
DWIDTH 11 0
BBX 5 5 2 0
BITMAP
70
F8
F8
F8
70
ENDCHAR

STARTCHAR slash
ENCODING 47
SWIDTH 510 0
DWIDTH 19 0
BBX 17 32 1 -1
BITMAP
000180
000180
000300
000300
000600
000600
000C00
000C00
001800
001800
003000
003000
006000
006000
00C000
00C000
018000
018000
030000
030000
060000
060000
0E0000
0C0000
1C0000
180000
380000
300000
300000
600000
600000
C00000
ENDCHAR

STARTCHAR zero
ENCODING 48
SWIDTH 500 0
DWIDTH 19 0
BBX 18 27 2 0
BITMAP
007C00
01FF00
03C380
078180
0F01C0
0F01C0
1E01C0
1E01C0
3C03C0
3C03C0
3C03C0
7803C0
7803C0
780780
F00780
F00780
F00F00
F00F00
F00F00
E01E00
E01E00
E03C00
E03800
707800
70F000
3FC000
0F0000
ENDCHAR

STARTCHAR one
ENCODING 49
SWIDTH 500 0
DWIDTH 19 0
BBX 15 27 2 0
BITMAP
0006
001E
03FC
07FC
007C
003C
0038
0078
0078
0078
0070
00F0
00F0
00E0
00E0
01E0
01E0
01C0
03C0
03C0
03C0
0380
0780
0780
0F80
FFF8
FFF8
ENDCHAR

STARTCHAR two
ENCODING 50
SWIDTH 500 0
DWIDTH 19 0
BBX 20 27 0 0
BITMAP
007F00
00FFC0
0183E0
0301E0
0300F0
0780F0
07C0F0
07C0F0
03C0F0
0381E0
0003E0
0003C0
000780
000F00
001E00
003C00
007000
01E000
03C000
070000
0E01C0
1C0180
380380
600700
7FFF00
FFFF00
FFFE00
ENDCHAR

STARTCHAR three
ENCODING 51
SWIDTH 500 0
DWIDTH 19 0
BBX 19 27 1 0
BITMAP
007E00
01FF80
0383C0
0701C0
0781E0
0781E0
0781E0
0301E0
0003C0
0003C0
000780
001F00
07F400
07F800
001E00
000F00
000700
000780
300780
780780
F80F80
F00F00
F01F00
603E00
707C00
3FF800
07C000
ENDCHAR

STARTCHAR four
ENCODING 52
SWIDTH 500 0
DWIDTH 19 0
BBX 18 27 2 0
BITMAP
0000C0
0001C0
0003C0
0007C0
000F80
001B80
003780
007780
00E700
01CF00
038F00
030E00
060E00
0C1E00
181E00
301C00
601C00
C03C00
FFFF80
FFFF80
003800
007800
007800
007000
00F000
07FE00
0FFE00
ENDCHAR

STARTCHAR five
ENCODING 53
SWIDTH 500 0
DWIDTH 19 0
BBX 20 27 1 0
BITMAP
01FFF0
01FFE0
03FFE0
030000
030000
030000
060000
060000
060000
0CF800
0FFE00
0E1F00
1C0F00
000780
000780
000780
000780
000780
700780
F80F00
F80F00
F01E00
E01E00
E03C00
70F800
3FF000
0F8000
ENDCHAR

STARTCHAR six
ENCODING 54
SWIDTH 500 0
DWIDTH 19 0
BBX 19 27 3 0
BITMAP
001F00
00FFC0
01E1E0
03C3E0
0783E0
0F01C0
1E0000
1E0000
3C0000
3C0000
79F000
7BFC00
7E3E00
7C1E00
F80F00
F00F00
F00F00
F00F00
E00F00
E00F00
E01E00
E01E00
E03C00
703C00
387800
1FE000
078000
ENDCHAR

STARTCHAR seven
ENCODING 55
SWIDTH 500 0
DWIDTH 19 0
BBX 17 27 5 0
BITMAP
1FFF80
3FFF80
3FFB00
380600
700E00
600C00
601800
C03000
007000
006000
00E000
01C000
01C000
038000
078000
070000
0F0000
0E0000
1E0000
1E0000
3C0000
3C0000
7C0000
7C0000
780000
780000
300000
ENDCHAR

STARTCHAR eight
ENCODING 56
SWIDTH 500 0
DWIDTH 19 0
BBX 19 27 2 0
BITMAP
00FF00
01E3C0
0381E0
0780E0
0F00E0
0F00E0
0E00E0
0E01E0
0E01C0
0703C0
070780
00FE00
07FC00
1E0F00
3C0780
380780
780780
780780
F00780
F00780
F00F00
F00F00
F01E00
701E00
387C00
1FF000
07C000
ENDCHAR

STARTCHAR nine
ENCODING 57
SWIDTH 500 0
DWIDTH 19 0
BBX 19 27 1 0
BITMAP
003E00
00FF00
03C380
0781C0
0780E0
0F00E0
0F00E0
0F00E0
1E00E0
1E01E0
1E01E0
1E01E0
1E03E0
0F03C0
0F0FC0
07FBC0
01E3C0
000780
000780
000F00
000F00
701E00
F83C00
F07800
78F000
7FC000
1F0000
ENDCHAR

STARTCHAR colon
ENCODING 58
SWIDTH 281 0
DWIDTH 11 0
BBX 10 21 0 0
BITMAP
0380
07C0
07C0
07C0
0380
0000
0000
0000
0000
0000
0000
0000
0000
0000
0000
0000
7000
F800
F800
F800
7000
ENDCHAR

STARTCHAR semicolon
ENCODING 59
SWIDTH 281 0
DWIDTH 11 0
BBX 12 26 -2 -5
BITMAP
00E0
01F0
01F0
01F0
00E0
0000
0000
0000
0000
0000
0000
0000
0000
0000
0000
0000
1C00
3E00
3E00
3E00
1E00
0E00
0C00
1800
7000
C000
ENDCHAR

STARTCHAR less
ENCODING 60
SWIDTH 667 0
DWIDTH 25 0
BBX 20 19 3 3
BITMAP
000010
000070
0001F0
000F80
003E00
00F800
07C000
1F0000
F80000
E00000
F00000
3E0000
0F8000
03E000
007C00
001F00
0007E0
0000F0
000030
ENDCHAR

STARTCHAR equal
ENCODING 61
SWIDTH 667 0
DWIDTH 25 0
BBX 20 11 3 7
BITMAP
FFFFF0
FFFFF0
000000
000000
000000
000000
000000
000000
000000
FFFFF0
FFFFF0
ENDCHAR

STARTCHAR greater
ENCODING 62
SWIDTH 667 0
DWIDTH 25 0
BBX 20 19 3 3
BITMAP
800000
C00000
F80000
3E0000
0F8000
01F000
007C00
001F00
0003E0
000070
0001F0
0007C0
003E00
00F800
07E000
1F0000
7C0000
F00000
800000
ENDCHAR

STARTCHAR question
ENCODING 63
SWIDTH 427 0
DWIDTH 16 0
BBX 15 29 3 0
BITMAP
03E0
0FF8
1C3C
3C1E
3C1E
3C1E
3C1E
183E
003C
007C
00F8
01E0
03C0
0700
0E00
0C00
1800
1800
1800
3000
0000
0000
0000
0000
7000
F800
F800
F800
7000
ENDCHAR

STARTCHAR at
ENCODING 64
SWIDTH 917 0
DWIDTH 35 0
BBX 33 35 1 -8
BITMAP
0003FC0000
001C038000
007000C000
00C0002000
0380001000
0700000800
0E00000C00
0C00000400
1800000400
1800F38200
30038B0200
30060B0200
600E0F0200
601C0E0200
60180E0200
C0380E0200
C0700E0600
C0701C0600
C0701C0400
C0E03C0C00
C0E0380800
C0E0581800
40E0B83000
60F3386000
607E38C180
203C1F0300
3000000200
1000000600
1800000C00
0C00000800
0600003000
0300006000
00C001C000
00380F0000
000FF80000
ENDCHAR

STARTCHAR A
ENCODING 65
SWIDTH 771 0
DWIDTH 29 0
BBX 30 29 -2 0
BITMAP
00000E00
00000E00
00001E00
00003E00
00003E00
00007E00
0000EE00
0000CF00
0001CF00
00018F00
00030F00
00070F00
00060F00
000C0780
001C0780
00180780
00380780
00300780
007FFF80
00FFFFC0
00C003C0
018003C0
038003C0
030003C0
070003C0
0E0001E0
1F0003E0
FFE01FFC
FFC03FF8
ENDCHAR

STARTCHAR B
ENCODING 66
SWIDTH 740 0
DWIDTH 28 0
BBX 29 29 -1 0
BITMAP
01FFFF00
03FFFFC0
003E03E0
003C00F0
003C00F0
003C00F8
007800F8
007800F8
007800F8
007801F0
00F001E0
00F003C0
00F00F80
01FFFC00
01FFFE00
01E00F80
01C007C0
03C003C0
03C003E0
03C003E0
038003E0
078003E0
078003E0
078007C0
070007C0
0F000F80
0F003F00
7FFFFC00
FFFFE000
ENDCHAR

STARTCHAR C
ENCODING 67
SWIDTH 708 0
DWIDTH 27 0
BBX 26 29 3 0
BITMAP
0007F000
003FFE00
00F80F00
01F007C0
03C003C0
07C003C0
0F8001C0
1F000180
1E000180
3E000180
3E000180
7C000000
7C000000
7C000000
78000000
F8000000
F8000000
F8000000
F8000000
F8000000
F8000600
78000600
7C000C00
7C001C00
3E003800
1F007000
1FC3E000
07FF8000
01FE0000
ENDCHAR

STARTCHAR D
ENCODING 68
SWIDTH 792 0
DWIDTH 30 0
BBX 30 29 0 0
BITMAP
03FFFC00
03FFFF80
003C03C0
003C00E0
007C0070
00780078
00780078
0078003C
00F0003C
00F0003C
00F0003C
00F0003C
01E0003C
01E0007C
01E0007C
03E0007C
03C00078
03C000F8
03C000F8
07C000F0
078001F0
078001E0
078003E0
0F8007C0
0F000F80
0F001F00
1F007E00
FFFFF800
FFFF8000
ENDCHAR

STARTCHAR E
ENCODING 69
SWIDTH 708 0
DWIDTH 27 0
BBX 28 29 0 0
BITMAP
03FFFFF0
03FFFFF0
007C01F0
007C00F0
007800E0
00780060
00780060
00F80060
00F030C0
00F03000
00F03000
01F07000
01E1E000
01FFE000
01FFE000
03C3C000
03C1C000
03C1C000
07C0C000
078180C0
07818180
07800180
0F800380
0F000300
0F000700
0F001F00
1F007F00
FFFFFE00
FFFFFE00
ENDCHAR

STARTCHAR F
ENCODING 70
SWIDTH 698 0
DWIDTH 27 0
BBX 29 29 0 0
BITMAP
03FFFFF8
03FFFFF0
007C01F0
007C00F0
00780070
00780070
00780070
00F80060
00F01860
00F01800
00F01800
01F03000
01E0F000
01FFF000
01FFF000
03C1E000
03C0E000
03C06000
03C06000
0780C000
0780C000
07800000
0F800000
0F000000
0F000000
0F000000
1F000000
FFF80000
FFF80000
ENDCHAR

STARTCHAR G
ENCODING 71
SWIDTH 802 0
DWIDTH 30 0
BBX 28 29 3 0
BITMAP
0003F800
001FFF00
007C0FC0
01F003E0
03C001E0
07C001E0
0F8000E0
1F0000C0
1E0000C0
3E0000C0
3E0000C0
7C000000
7C000000
7C000000
F8000000
F8007FF0
F800FFE0
F8000F80
F8000F00
F8000F00
F8001F00
78001E00
78001E00
3C001E00
3C003C00
1E007C00
0F81F800
03FFC000
00FE0000
ENDCHAR

STARTCHAR H
ENCODING 72
SWIDTH 812 0
DWIDTH 31 0
BBX 34 29 0 0
BITMAP
03FFC3FFC0
03FFC3FFC0
007C003E00
007C003C00
0078003C00
0078007C00
0078007800
00F8007800
00F0007800
00F000F800
00F000F000
01F000F000
01E000F000
01FFFFF000
01FFFFE000
03C001E000
03C001E000
03C003C000
03C003C000
078003C000
078007C000
0780078000
0F80078000
0F00078000
0F000F8000
0F000F0000
1F000F8000
FFF0FFF000
FFF0FFE000
ENDCHAR

STARTCHAR I
ENCODING 73
SWIDTH 417 0
DWIDTH 16 0
BBX 19 29 0 0
BITMAP
03FFE0
03FFE0
003E00
003C00
003C00
003C00
007800
007800
007800
007800
00F000
00F000
00F000
00F000
01E000
01E000
01E000
03E000
03C000
03C000
03C000
07C000
078000
078000
078000
0F8000
0F8000
FFF800
FFF000
ENDCHAR

STARTCHAR J
ENCODING 74
SWIDTH 604 0
DWIDTH 23 0
BBX 26 29 1 0
BITMAP
0007FFC0
0007FFC0
00003C00
00003C00
00007C00
00007800
00007800
00007800
0000F000
0000F000
0000F000
0001F000
0001E000
0001E000
0001E000
0003E000
0003C000
0003C000
3803C000
7C07C000
FC078000
FC078000
F80F8000
F00F0000
E01F0000
601E0000
787C0000
3FF80000
07C00000
ENDCHAR

STARTCHAR K
ENCODING 75
SWIDTH 760 0
DWIDTH 29 0
BBX 33 29 0 0
BITMAP
03FFC7FF80
03FFC7FF00
007C01F800
007C00E000
007801C000
0078038000
0078070000
00F81C0000
00F0380000
00F0700000
00F0E00000
01E1C00000
01E7C00000
01EFC00000
01EDE00000
03F9E00000
03F0F00000
03E0F00000
07C0F80000
0780780000
0780780000
07803C0000
0F803C0000
0F003E0000
0F001E0000
0F001F0000
1F001F0000
FFF1FFF000
FFF1FFE000
ENDCHAR

STARTCHAR L
ENCODING 76
SWIDTH 667 0
DWIDTH 25 0
BBX 25 29 0 0
BITMAP
03FFE000
03FFE000
003C0000
007C0000
00780000
00780000
00780000
00F80000
00F00000
00F00000
00F00000
01F00000
01E00000
01E00000
01E00000
03E00000
03C00000
03C00000
03C00000
07C00180
07800300
07800300
07800700
0F000E00
0F001E00
0F003E00
1F00FE00
FFFFFC00
FFFFFC00
ENDCHAR

STARTCHAR M
ENCODING 77
SWIDTH 979 0
DWIDTH 37 0
BBX 40 29 0 0
BITMAP
03FF0001FF
03F70003BF
0037000378
00370006F0
006F0006F0
0067000CF0
0067801DF0
00678019E0
00C78031E0
00C78031E0
00C78063E0
00C780E3C0
018780C3C0
01878183C0
0187818780
0187830780
0303870780
0303C60780
0303CC0F00
0603CC0F00
0603D80F00
0603F81F00
0603F01E00
0C03E01E00
0C03E01E00
1E03C03E00
3E03C03E00
FFC181FFC0
FFC103FFC0
ENDCHAR

STARTCHAR N
ENCODING 78
SWIDTH 823 0
DWIDTH 31 0
BBX 35 29 0 0
BITMAP
03FC007FE0
03FE00FFE0
007E001F00
003F000E00
002F000E00
006F000C00
0067800C00
0067800C00
00C3C01800
00C3C01800
00C3E01800
00C1E01800
0181F03000
0180F03000
0180F03000
0180782000
0300786000
03007C6000
03003C6000
03003E4000
06001EC000
06001EC000
06000FC000
06000F8000
0E000F8000
0E00078000
1E00078000
FFE0030000
FFE0030000
ENDCHAR

STARTCHAR O
ENCODING 79
SWIDTH 792 0
DWIDTH 30 0
BBX 27 29 3 0
BITMAP
0007E000
003FFC00
00F80F00
01E00780
03C00380
078003C0
0F0001C0
1F0001E0
3E0001E0
3E0001E0
7C0001E0
7C0001E0
7C0003E0
F80003E0
F80003E0
F80003E0
F80003C0
F00007C0
F00007C0
F0000F80
F0000F80
F0001F00
78001E00
78003C00
38007800
1C00F000
0F03E000
07FF8000
00F80000
ENDCHAR

STARTCHAR P
ENCODING 80
SWIDTH 698 0
DWIDTH 27 0
BBX 28 29 -1 0
BITMAP
03FFFC00
03FFFF80
003C03C0
003C01E0
007C01F0
007800F0
007800F0
007800F0
00F800F0
00F001F0
00F001F0
00F003E0
01F007C0
01E00F80
01FFFF00
01FFF800
03C00000
03C00000
03C00000
03C00000
07800000
07800000
07800000
07800000
0F000000
0F000000
1F000000
FFF80000
FFF00000
ENDCHAR

STARTCHAR Q
ENCODING 81
SWIDTH 792 0
DWIDTH 30 0
BBX 28 33 3 -4
BITMAP
0007E000
003FFC00
00F81F00
01E00780
03C00380
078003C0
0F0001C0
1F0001E0
3E0001E0
3E0001E0
7C0001E0
7C0001E0
7C0001E0
F80003E0
F80003E0
F80003E0
F80003C0
F1F807C0
F3FE07C0
F61F0F80
FC0F0F80
F8079F00
78079E00
7803BC00
3C03FC00
3C01F000
1E03E000
07FFE000
00FCF000
0000F800
00007E00
00001FF0
000007E0
ENDCHAR

STARTCHAR R
ENCODING 82
SWIDTH 760 0
DWIDTH 29 0
BBX 28 29 -1 0
BITMAP
01FFFE00
03FFFFC0
003E03E0
003C01F0
003C00F0
003C00F0
007800F0
007800F0
007801F0
00F801F0
00F003E0
00F007C0
00F00F80
01FFFE00
01FFF000
01E07800
01E03C00
03C03C00
03C03C00
03C01E00
03C01E00
07801E00
07801F00
07800F00
07800F00
0F800F00
0F800F80
7FF807F0
FFF807E0
ENDCHAR

STARTCHAR S
ENCODING 83
SWIDTH 646 0
DWIDTH 25 0
BBX 24 29 1 0
BITMAP
000FC0
007FFC
01E03F
01C01F
03C00F
07800E
078006
078006
07C006
07C000
03F000
03F800
01FE00
00FF80
003FE0
000FF0
0003F8
0000FC
00007C
30007C
30003C
30003C
70003C
700038
780078
7C00F0
FE03E0
3FFFC0
01FE00
ENDCHAR

STARTCHAR T
ENCODING 84
SWIDTH 750 0
DWIDTH 29 0
BBX 27 29 4 0
BITMAP
1FFFFFE0
1FFFFFE0
1F0F83C0
3C0F01C0
380F01C0
700F01C0
601E0180
601E0180
C01E0180
C03E0180
803C0100
003C0000
003C0000
007C0000
00780000
00780000
00780000
00F80000
00F00000
00F00000
00F00000
01F00000
01E00000
01E00000
01E00000
03E00000
03E00000
7FFE0000
7FFE0000
ENDCHAR

STARTCHAR U
ENCODING 85
SWIDTH 760 0
DWIDTH 29 0
BBX 28 29 5 0
BITMAP
7FF87FF0
7FF87FF0
07800780
0F800700
0F000700
0F000600
0F000600
1F000600
1E000600
1E000C00
1E000C00
3C000C00
3C000C00
3C001800
3C001800
78001800
78003000
78003000
78003000
F0003000
F0006000
F0006000
F0006000
F000C000
F8018000
78038000
3E0F0000
1FFE0000
07F80000
ENDCHAR

STARTCHAR V
ENCODING 86
SWIDTH 740 0
DWIDTH 28 0
BBX 29 29 4 0
BITMAP
7FF01FF8
FFE03FF8
1F0007C0
0F000380
0F000300
0F000600
0F000600
0F000C00
07001C00
07801800
07803000
07803000
07806000
0780E000
0780C000
03818000
03C18000
03C30000
03C70000
03C60000
03CC0000
03CC0000
03D80000
01F80000
01F00000
01E00000
01E00000
01C00000
01C00000
ENDCHAR

STARTCHAR W
ENCODING 87
SWIDTH 979 0
DWIDTH 37 0
BBX 37 29 4 0
BITMAP
FFCFFF0FF8
FF8FFF0FF0
3E00F003C0
1C00F00180
1C00F00300
1C00F00300
1C00F00600
1C01F00600
1E01F00C00
1E03700C00
1E03701800
1E06701800
1E06703000
1E0C703000
1E1C706000
1E1878E000
1E3878C000
0E3079C000
0E70798000
0E607B0000
0EE07B0000
0F407A0000
0FC07E0000
0F807C0000
0F007C0000
0F00380000
0E00380000
0E00300000
0C00300000
ENDCHAR

STARTCHAR X
ENCODING 88
SWIDTH 750 0
DWIDTH 29 0
BBX 35 29 -2 0
BITMAP
01FFE0FFE0
01FFE1FFC0
003E003E00
001E003C00
001F003800
000F007000
000F80E000
000781C000
0007C38000
0003C70000
0003CE0000
0001EC0000
0001F80000
0001F00000
0000F00000
0001F80000
0003B80000
00077C0000
000E3C0000
001C3C0000
00301E0000
00601E0000
00C00F0000
01C00F0000
0380078000
0780078000
1F8007C000
7FF07FF800
FFF07FF800
ENDCHAR

STARTCHAR Y
ENCODING 89
SWIDTH 708 0
DWIDTH 27 0
BBX 27 29 5 0
BITMAP
FFC0FFE0
FFC0FFC0
3E001F00
1E000E00
1E001C00
0F001800
0F003000
0F806000
0780E000
07C1C000
03C38000
03C30000
01E60000
01EE0000
01FC0000
00F80000
00F00000
00F00000
01F00000
01F00000
01E00000
01E00000
03E00000
03E00000
03C00000
03C00000
07C00000
7FFC0000
7FFC0000
ENDCHAR

STARTCHAR Z
ENCODING 90
SWIDTH 687 0
DWIDTH 26 0
BBX 27 29 1 0
BITMAP
00FFFFE0
01FFFFE0
01F807C0
01E00F80
03C00F00
03801F00
03003E00
07007C00
0600F800
0601F000
0001E000
0003E000
0007C000
000F8000
001F0000
003E0000
007C0000
00780000
00F80000
01F00300
03E00600
07C00600
0F800E00
0F001E00
1E003C00
3E007C00
7801FC00
FFFFF800
FFFFF800
ENDCHAR

STARTCHAR bracketleft
ENCODING 91
SWIDTH 344 0
DWIDTH 13 0
BBX 17 34 0 -5
BITMAP
007F80
00FF00
00F000
00F000
00E000
01E000
01E000
01C000
01C000
03C000
03C000
038000
078000
078000
078000
070000
0F0000
0F0000
0E0000
0E0000
1E0000
1E0000
1C0000
3C0000
3C0000
3C0000
380000
780000
780000
700000
700000
F00000
FF0000
FF0000
ENDCHAR

STARTCHAR backslash
ENCODING 92
SWIDTH 510 0
DWIDTH 19 0
BBX 17 32 1 -1
BITMAP
C00000
600000
600000
300000
300000
180000
180000
0C0000
0C0000
060000
060000
030000
030000
018000
018000
00C000
00C000
00E000
006000
007000
003000
003000
001800
001800
000C00
000C00
000600
000600
000300
000300
000180
000180
ENDCHAR

STARTCHAR bracketright
ENCODING 93
SWIDTH 344 0
DWIDTH 13 0
BBX 17 34 -3 -5
BITMAP
007F80
007F80
000700
000F00
000F00
000E00
000E00
001E00
001E00
001C00
001C00
003C00
003C00
003800
007800
007800
007800
007000
00F000
00F000
00E000
00E000
01E000
01E000
01C000
03C000
03C000
03C000
038000
078000
078000
070000
FF0000
FF0000
ENDCHAR

STARTCHAR asciicircum
ENCODING 94
SWIDTH 427 0
DWIDTH 16 0
BBX 17 14 1 12
BITMAP
008000
018000
01C000
036000
026000
063000
0C1000
0C1800
180C00
100C00
300600
600200
600300
C00180
ENDCHAR

STARTCHAR underscore
ENCODING 95
SWIDTH 500 0
DWIDTH 19 0
BBX 19 2 0 -8
BITMAP
FFFFE0
FFFFE0
ENDCHAR

STARTCHAR quoteleft
ENCODING 96
SWIDTH 281 0
DWIDTH 11 0
BBX 7 10 6 19
BITMAP
06
1E
38
60
60
F0
F8
F8
F8
70
ENDCHAR

STARTCHAR a
ENCODING 97
SWIDTH 604 0
DWIDTH 23 0
BBX 21 21 1 0
BITMAP
00F810
03FCF0
07CEF0
0F06E0
1E03E0
1E01E0
3C01C0
3C03C0
7803C0
7803C0
780380
F00780
F00780
F00700
F00F00
F00F18
F01F30
703E30
78EF60
3FCFC0
1F0700
ENDCHAR

STARTCHAR b
ENCODING 98
SWIDTH 604 0
DWIDTH 23 0
BBX 20 29 2 0
BITMAP
0FE000
0FE000
01E000
01C000
03C000
03C000
038000
038000
078F80
07BFC0
0771E0
0FC0E0
0F80F0
0F00F0
0E00F0
1E00F0
1E00F0
1C00F0
3C01E0
3C01E0
3801E0
3803C0
7803C0
700780
780F00
780E00
FC3C00
CFF800
83C000
ENDCHAR

STARTCHAR c
ENCODING 99
SWIDTH 448 0
DWIDTH 17 0
BBX 17 21 1 0
BITMAP
007C00
01FF00
078780
0F0780
1E0780
1C0780
3C0000
380000
780000
780000
780000
F00000
F00000
F00000
F00000
F00000
F00700
781C00
7C7800
3FE000
0F8000
ENDCHAR

STARTCHAR d
ENCODING 100
SWIDTH 604 0
DWIDTH 23 0
BBX 23 29 1 0
BITMAP
0001FE
0001FC
00003C
00003C
000038
000078
000078
000070
01F8F0
03FCF0
07CEF0
0F02E0
1E03E0
1E01E0
3C01C0
3C01C0
7803C0
7803C0
780380
F00780
F00780
F00700
F00F00
F00F18
F01F30
703E30
78EE60
3FCFC0
1F0700
ENDCHAR

STARTCHAR e
ENCODING 101
SWIDTH 448 0
DWIDTH 17 0
BBX 16 21 1 0
BITMAP
007C
01FE
070F
0E07
1C07
1C07
380F
780E
781E
7878
70F0
F7C0
FF00
F800
F000
F000
F00E
781C
7C78
3FE0
0F80
ENDCHAR

STARTCHAR f
ENCODING 102
SWIDTH 344 0
DWIDTH 13 0
BBX 26 36 -6 -7
BITMAP
00001F00
00007F80
0000E7C0
0001C380
00038180
00038000
00078000
00070000
000F0000
007FF000
00FFE000
000E0000
001E0000
001E0000
001E0000
001C0000
001C0000
003C0000
003C0000
00380000
00380000
00780000
00780000
00700000
00700000
00700000
00E00000
00E00000
00E00000
01C00000
01C00000
01800000
E3800000
F7000000
FE000000
78000000
ENDCHAR

STARTCHAR g
ENCODING 103
SWIDTH 583 0
DWIDTH 22 0
BBX 23 28 -1 -7
BITMAP
007F86
00F1FE
01C0EE
03C070
078070
078070
070070
0700F0
0700F0
0301E0
0381E0
01C780
03FF00
0E0000
180000
1C0000
1FFC00
0FFF00
07FF80
1C07C0
7801C0
7001C0
E001C0
E00180
F00300
780E00
3FFC00
07E000
ENDCHAR

STARTCHAR h
ENCODING 104
SWIDTH 635 0
DWIDTH 24 0
BBX 22 29 1 0
BITMAP
07F000
07F000
01E000
01E000
01E000
01C000
01C000
03C000
03C3E0
038FF0
039CF0
07B070
076070
07C070
0F80F0
0F00E0
0E00E0
0E01E0
1E01E0
1C01C0
1C03C0
3C03C0
3C0380
38078C
780798
780718
700730
7007E0
F003C0
ENDCHAR

STARTCHAR i
ENCODING 105
SWIDTH 344 0
DWIDTH 13 0
BBX 10 29 3 0
BITMAP
0380
07C0
07C0
07C0
0380
0000
0000
0000
7F80
FF00
1F00
0F00
0E00
1E00
1E00
1C00
3C00
3C00
3800
3800
7800
7800
7000
F1C0
F180
E300
E600
FC00
7800
ENDCHAR

STARTCHAR j
ENCODING 106
SWIDTH 344 0
DWIDTH 13 0
BBX 17 36 -5 -7
BITMAP
000700
000F80
000F80
000F80
000700
000000
000000
000000
007F00
00FF00
001E00
000E00
000E00
001E00
001E00
001C00
001C00
003C00
003C00
003800
003800
007800
007800
007000
007000
00F000
00F000
00E000
00E000
01E000
01E000
61C000
F1C000
F38000
FF0000
3E0000
ENDCHAR

STARTCHAR k
ENCODING 107
SWIDTH 594 0
DWIDTH 23 0
BBX 21 29 1 0
BITMAP
0FF000
0FE000
01E000
01E000
01C000
03C000
03C000
03C000
0380F0
0783F8
0787F8
078C78
0F1800
0F3000
0F7000
0E6000
1E8000
1EFC00
1F9E00
1E0E00
3C0E00
3C0E00
380E00
780E00
781E38
701E30
701EE0
F01FC0
F00F00
ENDCHAR

STARTCHAR l
ENCODING 108
SWIDTH 344 0
DWIDTH 13 0
BBX 11 29 3 0
BITMAP
1FE0
1FC0
03C0
03C0
0380
0780
0780
0780
0700
0F00
0F00
0E00
1E00
1E00
1E00
1C00
3C00
3C00
3800
7800
7800
7800
7000
F1C0
F180
E300
E600
FC00
7800
ENDCHAR

STARTCHAR m
ENCODING 109
SWIDTH 906 0
DWIDTH 34 0
BBX 34 21 0 0
BITMAP
3FC3E07C00
3F8FE0FE00
079CF39E00
07B0F70E00
0760F40E00
07C0F81E00
0F80F01E00
0F01E01C00
0E01E03C00
0E01C03C00
1E03C03800
1E03C07800
1C03C07800
3C03807800
3C07807000
380780F1C0
380700F300
780F00E300
780F00E600
700F00FC00
F00E007800
ENDCHAR

STARTCHAR n
ENCODING 110
SWIDTH 635 0
DWIDTH 24 0
BBX 22 21 1 0
BITMAP
3F83E0
3F8FF0
079CF0
073070
076070
07C070
0F80F0
0F00E0
0E00E0
1E01E0
1E01E0
1C01C0
1C03C0
3C03C0
3C0380
38078C
780798
780718
700730
7007E0
F00380
ENDCHAR

STARTCHAR o
ENCODING 111
SWIDTH 531 0
DWIDTH 20 0
BBX 18 21 1 0
BITMAP
00F800
03FE00
070700
0E0380
1E0380
3C03C0
3C03C0
7803C0
7803C0
7803C0
F003C0
F00780
F00780
F00780
F00F00
F00F00
701E00
701C00
387800
1FF000
078000
ENDCHAR

STARTCHAR p
ENCODING 112
SWIDTH 594 0
DWIDTH 23 0
BBX 25 28 -3 -7
BITMAP
01FC7C00
03F9FE00
003B8F00
007E0700
007C0780
00780780
00700780
00F00780
00F00780
00E00780
01E00F00
01E00F00
01C00F00
01C01E00
03C01E00
03C03C00
03E07C00
03A07800
07B9F000
079FE000
070F8000
0F000000
0F000000
0E000000
0E000000
1E000000
FFE00000
FFE00000
ENDCHAR

STARTCHAR q
ENCODING 113
SWIDTH 573 0
DWIDTH 22 0
BBX 20 28 1 -7
BITMAP
007C10
01FF30
0383B0
0701F0
0F00E0
1E01E0
3C01E0
3C01C0
7801C0
7803C0
7803C0
F00380
F00780
F00780
F00700
F00F00
F01F00
703F00
78EE00
3FDE00
1F1E00
001C00
001C00
003C00
003C00
003C00
03FF80
07FF00
ENDCHAR

STARTCHAR r
ENCODING 114
SWIDTH 490 0
DWIDTH 19 0
BBX 18 21 1 0
BITMAP
3F0380
7F0FC0
0F1FC0
073BC0
0F6180
0FC000
0E8000
0F8000
0F0000
1E0000
1E0000
1C0000
1C0000
3C0000
3C0000
380000
780000
780000
700000
700000
F00000
ENDCHAR

STARTCHAR s
ENCODING 115
SWIDTH 448 0
DWIDTH 17 0
BBX 16 21 1 0
BITMAP
03FC
071E
0E0F
1C0F
1C07
1E02
1E00
1F80
0FC0
07E0
03F8
00F8
007C
003C
401C
E01C
F01C
F038
F878
7FE0
0F80
ENDCHAR

STARTCHAR t
ENCODING 116
SWIDTH 354 0
DWIDTH 13 0
BBX 12 26 2 0
BITMAP
00C0
0180
0180
0380
0780
0F00
7FF0
FFE0
0E00
1E00
1E00
1E00
1C00
3C00
3C00
3800
7800
7800
7800
7000
F0C0
F180
E300
E700
FE00
7800
ENDCHAR

STARTCHAR u
ENCODING 117
SWIDTH 635 0
DWIDTH 24 0
BBX 21 21 3 0
BITMAP
7F00F0
7F00E0
1E01E0
0E01E0
1E01C0
1C03C0
1C03C0
3C03C0
3C0380
380780
780780
780700
700F00
700F00
F01E00
E03E38
E06E20
E1DC60
F39CC0
FE1F80
7C0E00
ENDCHAR

STARTCHAR v
ENCODING 118
SWIDTH 542 0
DWIDTH 21 0
BBX 18 21 2 0
BITMAP
7F8380
FF0780
0F07C0
0F03C0
0E03C0
1E01C0
1E00C0
1C00C0
3C00C0
3C0080
3C0180
380180
780300
780300
700600
700600
700C00
781800
7C7000
3FE000
0F8000
ENDCHAR

STARTCHAR w
ENCODING 119
SWIDTH 812 0
DWIDTH 31 0
BBX 27 21 3 0
BITMAP
FF01E1C0
FF01E3E0
1F01C3E0
0E03C1E0
1E03C0E0
1E038060
1C038060
3C078060
3C078060
38070040
780F00C0
780F00C0
701E0080
F01E0180
F01E0100
E0360300
E06E0600
E0CE0E00
F1CF1C00
7F07F800
3E03E000
ENDCHAR

STARTCHAR x
ENCODING 120
SWIDTH 583 0
DWIDTH 22 0
BBX 22 21 0 0
BITMAP
03C07C
07E0FC
0DE0FC
18F19C
18F300
107600
007E00
007C00
003800
003800
003C00
007C00
006C00
00DE00
019E00
018E08
030F18
E60F10
FC0730
F807E0
F003C0
ENDCHAR

STARTCHAR y
ENCODING 121
SWIDTH 521 0
DWIDTH 20 0
BBX 22 28 -3 -7
BITMAP
01C038
03E078
07E07C
06F03C
04F01C
0CF01C
0C7018
007018
007018
007830
007830
007860
007860
0078C0
003980
003980
003B00
003E00
003E00
003C00
003800
003000
006000
70C000
F18000
FF0000
FE0000
380000
ENDCHAR

STARTCHAR z
ENCODING 122
SWIDTH 510 0
DWIDTH 19 0
BBX 20 21 -1 0
BITMAP
01F830
03FFF0
07FFE0
0E3EE0
0C00C0
180180
000300
000600
001C00
003800
007000
00E000
01C000
038000
060000
0C0060
1800C0
37E1C0
37FF80
7FFF00
E07E00
ENDCHAR

STARTCHAR braceleft
ENCODING 123
SWIDTH 479 0
DWIDTH 18 0
BBX 16 35 6 -6
BITMAP
0001
000E
0018
0030
0060
00E0
01C0
01C0
01C0
01C0
01C0
01C0
0380
0380
0300
0600
3800
C000
3000
1800
0C00
0C00
1C00
1C00
1C00
3C00
3800
7800
7000
7000
6000
6000
3000
1800
0E00
ENDCHAR

STARTCHAR bar
ENCODING 124
SWIDTH 510 0
DWIDTH 19 0
BBX 2 32 9 -1
BITMAP
C0
C0
C0
C0
C0
C0
C0
C0
C0
C0
C0
C0
C0
C0
C0
C0
C0
C0
C0
C0
C0
C0
C0
C0
C0
C0
C0
C0
C0
C0
C0
C0
ENDCHAR

STARTCHAR braceright
ENCODING 125
SWIDTH 479 0
DWIDTH 18 0
BBX 16 35 2 -6
BITMAP
0040
0038
000C
0006
0006
0006
000E
000E
001E
001C
003C
0038
0038
0030
0030
0018
000C
0007
000C
0030
0060
00C0
01C0
03C0
0380
0380
0380
0380
0380
0300
0700
0600
0C00
3000
C000
ENDCHAR

STARTCHAR asciitilde
ENCODING 126
SWIDTH 667 0
DWIDTH 25 0
BBX 20 5 3 10
BITMAP
3E0010
7FC020
C1F860
803FC0
800F80
ENDCHAR

STARTCHAR space
ENCODING 160
SWIDTH 250 0
DWIDTH 12 0
BBX 0 0 0 0
BITMAP
ENDCHAR

STARTCHAR afii10023
ENCODING 161
SWIDTH 708 0
DWIDTH 27 0
BBX 29 36 -1 0
BITMAP
0001C380
0003C3C0
0003C3C0
00018180
00000000
00000000
00000000
01FFFFF8
03FFFFF8
003E00F8
003C0078
003C0070
003C0030
007C0030
00780030
00781860
00781800
00F03800
00F03000
00F0F000
00FFF000
01FFF000
01E1E000
01E0E000
01E0E000
03C0E000
03C0C060
03C0C0C0
07C000C0
078001C0
07800380
07800380
0F800F80
0F803F80
7FFFFF00
FFFFFF00
ENDCHAR

STARTCHAR afii10051
ENCODING 162
SWIDTH 842 0
DWIDTH 32 0
BBX 28 29 3 0
BITMAP
1FFFFFC0
3FFFFFC0
3E1F0780
381F0380
701E0380
601E0180
E01E0180
C03C0300
003C0000
003C0000
003C0000
00787F00
0079FFC0
007BC7E0
007E01E0
00FC01F0
00F001F0
00F001F0
01F001F0
01E001F0
01E001F0
01E001E0
03E003E0
03C003C0
03C003C0
03C00780
07C0CF00
7FFCFE00
7FFC7C00
ENDCHAR

STARTCHAR afii10052
ENCODING 163
SWIDTH 676 0
DWIDTH 26 0
BBX 29 37 0 0
BITMAP
00000200
00000F00
00001F00
00007E00
0000F000
00010000
00000000
00000000
03FFFFF8
03FFFFF8
007C00F8
003C0070
00780030
00780030
00780030
00780020
00F00060
00F00060
00F00000
01F00000
01E00000
01E00000
01E00000
03C00000
03C00000
03C00000
03C00000
07800000
07800000
07800000
0F800000
0F000000
0F000000
0F000000
1F000000
FFF00000
FFE00000
ENDCHAR

STARTCHAR afii10053
ENCODING 164
SWIDTH 708 0
DWIDTH 27 0
BBX 26 29 3 0
BITMAP
0007F000
003FFE00
00FC0F00
01F007C0
03E003C0
07C003C0
0F8001C0
1F000180
1F000180
3E000180
3E000180
7C000000
7C000000
7FFE0000
7FFE0000
F8000000
F8000000
F8000000
F8000000
F8000000
F8000600
78000600
7C000C00
7C001C00
3E003800
1F007000
0FC1E000
07FF8000
01FE0000
ENDCHAR

STARTCHAR afii10054
ENCODING 165
SWIDTH 646 0
DWIDTH 25 0
BBX 24 29 0 0
BITMAP
000FC0
007FFC
01F03F
03C01F
03C00F
078006
078006
078006
07C006
07C000
03F000
03F800
01FE00
00FF80
003FE0
000FF0
0003F8
0000FC
00007C
30007C
30003C
30003C
70003C
700078
780078
7C00F0
FE03E0
3FFFC0
01FE00
ENDCHAR

STARTCHAR afii10055
ENCODING 166
SWIDTH 406 0
DWIDTH 15 0
BBX 19 29 0 0
BITMAP
03FFE0
03FFE0
003E00
003C00
003C00
007800
007800
007800
007800
00F000
00F000
00F000
00F000
01E000
01E000
01E000
01E000
03C000
03C000
03C000
07C000
078000
078000
078000
0F8000
0F0000
0F0000
FFF800
FFF000
ENDCHAR

STARTCHAR afii10056
ENCODING 167
SWIDTH 406 0
DWIDTH 15 0
BBX 20 36 0 0
BITMAP
006060
00F0F0
00F0F0
006060
000000
000000
000000
03FFF0
03FFE0
003E00
003E00
003C00
003C00
007C00
007800
007800
007800
00F800
00F000
00F000
00F000
01F000
01E000
01E000
01E000
03C000
03C000
03C000
03C000
078000
078000
078000
0F8000
0F8000
FFF800
FFF800
ENDCHAR

STARTCHAR afii10057
ENCODING 168
SWIDTH 615 0
DWIDTH 23 0
BBX 26 29 1 0
BITMAP
0007FFC0
0007FFC0
00003C00
00003C00
00007C00
00007800
00007800
00007800
0000F000
0000F000
0000F000
0001F000
0001E000
0001E000
0001E000
0003E000
0003C000
0003C000
3803C000
7C07C000
FC078000
FC078000
F80F8000
F00F0000
E01F0000
601E0000
787C0000
3FF80000
07C00000
ENDCHAR

STARTCHAR afii10058
ENCODING 169
SWIDTH 1096 0
DWIDTH 42 0
BBX 41 29 -1 0
BITMAP
001FFFFFE000
001FFFFFC000
0003E01E0000
0001C01E0000
0001C03E0000
0001803C0000
0003803C0000
0003803C0000
0003007C0000
000300780000
000700780000
000600780000
000600F00000
000C00FFE000
000C00FFFC00
000C00F07E00
001801E01F00
001801E00F00
001801E00F80
003003E00F80
003003C00F80
006003C00F80
006003C00F00
70C007C01F00
F8C007803F00
F98007803E00
FF000F80FC00
FE007FFFF000
7C007FFF8000
ENDCHAR

STARTCHAR afii10059
ENCODING 170
SWIDTH 1061 0
DWIDTH 40 0
BBX 39 29 0 0
BITMAP
03FFC7FF80
03FFC7FF80
007C007800
003C007800
007800F800
007800F000
007800F000
007800F000
00F001E000
00F001E000
00F001E000
01F001E000
01E003C000
01FFFFFF80
01FFFFFFF0
03E003C1F8
03C007807C
03C007803C
03C007803E
07C00F803E
07800F003E
07800F003E
07800F003E
0F801F007C
0F001E00FC
0F001E01F8
1F003E03F0
FFF1FFFFC0
FFF1FFFE00
ENDCHAR

STARTCHAR afii10060
ENCODING 171
SWIDTH 847 0
DWIDTH 32 0
BBX 27 29 3 0
BITMAP
3FFFFFC0
3FFFFFC0
3E1F0780
781E0380
701E0380
601E0180
E01E0180
C03C0300
003C0000
003C0000
007C0000
00783F00
0078FF80
007BC7C0
00FF03C0
00FC03C0
00F803C0
00F007C0
01E00780
01E00780
01E00780
01E00F80
03C00F00
03C00F00
03C00F00
07C01F00
07C01F00
7FFCFFE0
7FF9FFE0
ENDCHAR

STARTCHAR afii10061
ENCODING 172
SWIDTH 779 0
DWIDTH 30 0
BBX 33 36 0 0
BITMAP
000000E000
000001E000
000007E000
00000FC000
00003C0000
0000000000
0000000000
03FFC00F00
03FFC03F80
007E007F80
007C007F80
007800C700
007801C000
0078018000
00F8030000
00F0030000
00F0060000
00F0060000
01F00C0000
01E01C0000
01E0380000
01FFE00000
03FFE00000
03C0F00000
03C0780000
07C0780000
07803C0000
07803C0000
07801C0000
0F801E0000
0F001E0000
0F000F0000
0F000F0000
1F000F8000
FFF007F000
FFF007E000
ENDCHAR

STARTCHAR hyphen
ENCODING 173
SWIDTH 281 0
DWIDTH 11 0
BBX 9 3 1 9
BITMAP
7F80
FF00
FF00
ENDCHAR

STARTCHAR afii10062
ENCODING 174
SWIDTH 738 0
DWIDTH 28 0
BBX 30 37 3 0
BITMAP
000C0700
001E0700
001E0700
000C0700
000F1E00
0003F800
00000000
00000000
3FF80FFC
3FF81FFC
07C000E0
078001C0
07C00180
03C00380
03C00300
03C00600
01E00E00
01E00C00
01E01800
01E03800
00F03000
00F06000
00F0C000
0070C000
00798000
007B0000
007B0000
003E0000
003C0000
003C0000
38180000
7C300000
FC700000
FC600000
7FC00000
7F800000
1E000000
ENDCHAR

STARTCHAR afii10145
ENCODING 175
SWIDTH 823 0
DWIDTH 31 0
BBX 35 35 0 -6
BITMAP
03FFC1FFE0
03FFC3FFC0
007C003E00
007C003C00
0078003C00
0078003C00
0078007C00
00F8007800
00F0007800
00F0007800
00F000F800
01E000F000
01E000F000
01E000F000
03E001E000
03C001E000
03C001E000
03C001E000
07C003C000
078003C000
078003C000
078003C000
0F00078000
0F00078000
0F00078000
0F000F8000
1F000F8000
FFFFFFF000
FFFFFFF000
007F000000
003E000000
001C000000
0018000000
0018000000
0030000000
ENDCHAR

STARTCHAR afii10017
ENCODING 176
SWIDTH 753 0
DWIDTH 29 0
BBX 30 29 -3 0
BITMAP
00000600
00000E00
00001E00
00001E00
00003E00
00007F00
00006F00
0000CF00
0001CF00
00018F00
00038F00
00030700
00060780
000E0780
000C0780
00180780
00380780
00300380
007FFFC0
00FFFFC0
00C003C0
01C003C0
018003C0
030003C0
070001E0
0F0001E0
1F0001E0
7FE01FFC
FFE01FFC
ENDCHAR

STARTCHAR afii10018
ENCODING 177
SWIDTH 767 0
DWIDTH 29 0
BBX 29 29 0 0
BITMAP
03FFFFF8
03FFFFF8
003C00F8
003C0070
00780070
00780030
00780030
00780030
00F00060
00F00060
00F00000
00F00000
01E00000
01FFF800
01FFFF00
03E00F80
03C007C0
03C003C0
03C003E0
07C003E0
078003E0
078003E0
078003C0
0F0007C0
0F000780
0F000F80
1F003E00
FFFFF800
FFFFC000
ENDCHAR

STARTCHAR afii10019
ENCODING 178
SWIDTH 766 0
DWIDTH 29 0
BBX 29 29 0 0
BITMAP
01FFFF00
03FFFFC0
003E03E0
003C01F0
003C00F0
003C00F8
007800F8
007800F8
007800F8
007801F0
00F001E0
00F003C0
00F00780
01FFFC00
01FFFE00
01E00F80
01C007C0
03C003C0
03C003E0
03C003E0
038003E0
078003E0
078003E0
078007C0
070007C0
0F001F80
0F003F00
7FFFFC00
FFFFE000
ENDCHAR

STARTCHAR afii10020
ENCODING 179
SWIDTH 676 0
DWIDTH 26 0
BBX 29 29 0 0
BITMAP
03FFFFF8
03FFFFF8
007C00F8
003C0070
00780030
00780030
00780030
00780020
00F00060
00F00060
00F00000
01F00000
01E00000
01E00000
01E00000
03C00000
03C00000
03C00000
03C00000
07800000
07800000
07800000
0F800000
0F000000
0F000000
0F000000
1F000000
FFF00000
FFE00000
ENDCHAR

STARTCHAR afii10021
ENCODING 180
SWIDTH 803 0
DWIDTH 31 0
BBX 36 35 -3 -6
BITMAP
000FFFFFF0
000FFFFFF0
0001F00F80
0001E00F00
0001C00F00
0001C01F00
0001801E00
0001801E00
0001801E00
0003003C00
0003003C00
0003003C00
0006003C00
0006007800
0006007800
000C007800
000C007800
000C00F000
001800F000
001800F000
003001F000
003001E000
006001E000
00C001E000
00C003C000
038003C000
060007C000
3FFFFFFC00
3FFFFFFC00
7E00007800
7800003800
6000003800
6000003800
C000003000
C000003000
ENDCHAR

STARTCHAR afii10022
ENCODING 181
SWIDTH 708 0
DWIDTH 27 0
BBX 28 29 0 0
BITMAP
03FFFFF0
03FFFFF0
003C01F0
007C00F0
007800E0
00780060
00780060
00F80060
00F030C0
00F03000
00F03000
01F07000
01E1E000
01FFE000
01FFE000
03C3E000
03C1C000
03C0C000
03C0C000
078080C0
07818180
07800180
0F800380
0F000300
0F000700
0F001F00
1F007F00
FFFFFE00
FFFFFE00
ENDCHAR

STARTCHAR afii10024
ENCODING 182
SWIDTH 1175 0
DWIDTH 45 0
BBX 50 29 -2 0
BITMAP
007C00FFF00780
007E01FFF00FC0
00FE003F001FC0
007E001E003FC0
007F001E007780
0003003E006000
0003003C00E000
0003003C00C000
0003003C018000
0001007C018000
00018078030000
00018078070000
000180780E0000
0000C0F01C0000
00007FFFF00000
0003FFFFF80000
0007C0F07C0000
000F81E03C0000
001F01E01E0000
003E01E01E0000
007C03E01E0000
00F803C00F0000
01F003C00F0000
03E003C00F0000
07E00780078000
07C00780078000
1F800FC007C000
FF007FF803F800
FE00FFF003F000
ENDCHAR

STARTCHAR afii10025
ENCODING 183
SWIDTH 632 0
DWIDTH 24 0
BBX 25 30 0 -1
BITMAP
000FF000
007FFE00
01F03F00
01E00F00
03C00F80
03800F80
03000F80
07000F80
06000F00
0C001F00
00001E00
00003C00
0000F800
000FE000
003F0000
0007E000
0001F800
0000F800
00007C00
00007C00
00007C00
00007C00
00007800
C000F800
C000F000
6001F000
7007E000
3C1FC000
1FFF0000
07FC0000
ENDCHAR

STARTCHAR afii10026
ENCODING 184
SWIDTH 823 0
DWIDTH 31 0
BBX 35 29 0 0
BITMAP
03FFC1FFE0
03FFC1FFC0
003C003E00
003C003E00
007C007C00
0078007C00
007800FC00
007801BC00
00F0037800
00F0067800
00F00C7800
01F01CF800
01E038F000
01E070F000
01E0E0F000
03E1C1E000
03C381E000
03C701E000
03CE03E000
079C03C000
07B803C000
07B003C000
07E007C000
0FC0078000
0F80078000
0F00078000
1F000F8000
FFF07FF000
FFF0FFF000
ENDCHAR

STARTCHAR afii10027
ENCODING 185
SWIDTH 823 0
DWIDTH 31 0
BBX 35 37 0 0
BITMAP
0000C07000
0001E07000
0001E07000
0001C07000
0000F1E000
00007F8000
0000000000
0000000000
03FFC1FFE0
03FFC3FFC0
003C003E00
003C003C00
007C007C00
007800FC00
007801FC00
007803B800
00F0037800
00F0067800
00F00CF800
00F018F000
01E030F000
01E060F000
01E0E1F000
03E1C1E000
03C381E000
03C701E000
03CE03C000
079C03C000
07B803C000
07B003C000
07E0078000
0FC0078000
0F80078000
0F000F8000
1F000F8000
FFF07FF000
FFF0FFF000
ENDCHAR

STARTCHAR afii10028
ENCODING 186
SWIDTH 779 0
DWIDTH 30 0
BBX 33 29 0 0
BITMAP
03FFC00F00
03FFC03F80
007E007F80
007C007F80
007800C700
007801C000
0078018000
00F8030000
00F0030000
00F0060000
00F0060000
01F00C0000
01E01C0000
01E0380000
01FFE00000
03FFE00000
03C0F00000
03C0780000
07C0780000
07803C0000
07803C0000
07801C0000
0F801E0000
0F001E0000
0F000F0000
0F000F0000
1F000F8000
FFF007F000
FFF007E000
ENDCHAR

STARTCHAR afii10029
ENCODING 187
SWIDTH 830 0
DWIDTH 32 0
BBX 36 29 -1 0
BITMAP
001FFFFFF0
001FFFFFE0
0003E00F00
0001C01F00
0001C01E00
0001801E00
0003801E00
0003803C00
0003003C00
0003003C00
0007003C00
0006007800
0006007800
000E007800
000C00F800
000C00F000
001800F000
001800F000
001801F000
003001E000
003001E000
006001E000
006003C000
70C003C000
F8C003C000
F98003C000
FF0007C000
FE007FF800
7C007FF800
ENDCHAR

STARTCHAR afii10030
ENCODING 188
SWIDTH 979 0
DWIDTH 37 0
BBX 40 29 0 0
BITMAP
03FF0001FF
03F70003BF
0037000378
00370006F0
006F0006F0
0067000CF0
0067801DF0
00678019E0
00C78031E0
00C78031E0
00C78063E0
00C780E3C0
018780C3C0
01878183C0
0187818780
0187830780
0303870780
0303C60780
0303CC0F00
0603CC0F00
0603D80F00
0603F81F00
0603F01E00
0C03E01E00
0C03E01E00
1E03C03E00
3E03C03E00
FFC181FFC0
FFC103FFC0
ENDCHAR

STARTCHAR afii10031
ENCODING 189
SWIDTH 812 0
DWIDTH 31 0
BBX 34 29 0 0
BITMAP
03FFC3FFC0
03FFC3FFC0
003C003E00
007C003C00
0078003C00
0078007C00
0078007800
00F8007800
00F0007800
00F000F800
00F000F000
01F000F000
01E000F000
01FFFFF000
01FFFFE000
03C001E000
03C001E000
03C003C000
03C003C000
078003C000
078007C000
0780078000
0F80078000
0F00078000
0F000F8000
0F000F0000
1F000F0000
FFF0FFF000
FFF0FFE000
ENDCHAR

STARTCHAR afii10032
ENCODING 190
SWIDTH 787 0
DWIDTH 30 0
BBX 27 29 3 0
BITMAP
0007E000
003FFC00
00F80F00
01E00780
03C00380
078003C0
0F0001C0
1F0001E0
3E0001E0
3E0001E0
7C0001E0
7C0001E0
7C0003E0
F80003E0
F80003E0
F80003E0
F80003C0
F00007C0
F00007C0
F0000F80
F0000F80
F0001F00
78001E00
78003C00
38007800
1C00F000
0F03E000
07FF8000
00F80000
ENDCHAR

STARTCHAR afii10033
ENCODING 191
SWIDTH 823 0
DWIDTH 31 0
BBX 35 29 0 0
BITMAP
01FFFFFFE0
03FFFFFFC0
003C003E00
003C001E00
003C003E00
0078003C00
0078003C00
0078003C00
00F8007C00
00F0007800
00F0007800
00F0007800
01E000F000
01E000F000
01E000F000
01E001F000
03C001E000
03C001E000
03C001E000
03C003E000
078003C000
078003C000
078003C000
0F80078000
0F00078000
0F00078000
1F000F8000
FFF07FF800
FFF0FFF000
ENDCHAR

STARTCHAR afii10034
ENCODING 192
SWIDTH 704 0
DWIDTH 27 0
BBX 28 29 0 0
BITMAP
03FFFC00
03FFFF80
003C03C0
003C01E0
007C01F0
007800F0
007800F0
007800F0
00F800F0
00F001F0
00F001F0
00F003E0
01F007C0
01E00F80
01FFFF00
01FFF800
03C00000
03C00000
03C00000
03C00000
07800000
07800000
07800000
07800000
0F000000
0F000000
1F000000
FFF80000
FFF00000
ENDCHAR

STARTCHAR afii10035
ENCODING 193
SWIDTH 708 0
DWIDTH 27 0
BBX 26 29 3 0
BITMAP
0007F000
003FFE00
00F80F00
01F007C0
03C003C0
078003C0
0F8001C0
1F000180
1E000180
3E000180
3E000180
7C000000
7C000000
7C000000
78000000
F8000000
F8000000
F8000000
F8000000
F8000000
F8000600
78000600
7C000C00
7C001C00
3E003800
1F007000
1FC3E000
07FF8000
01FE0000
ENDCHAR

STARTCHAR afii10036
ENCODING 194
SWIDTH 708 0
DWIDTH 27 0
BBX 28 29 3 0
BITMAP
0FFFFFF0
0FFFFFE0
1F8783E0
1E0781E0
1C0780E0
380F00C0
300F00C0
700F00C0
601F00C0
601E0080
C01E0180
001E0000
003E0000
003C0000
003C0000
003C0000
007C0000
00780000
00780000
00780000
00F00000
00F00000
00F00000
00F00000
01E00000
01E00000
01E00000
3FFF0000
3FFE0000
ENDCHAR

STARTCHAR afii10037
ENCODING 195
SWIDTH 738 0
DWIDTH 28 0
BBX 30 29 3 0
BITMAP
3FF80FFC
3FF81FFC
07C000E0
078000C0
07C00180
03C00380
03C00300
03C00600
03E00E00
01E00C00
01E01800
01E03800
00F03000
00F06000
00F0E000
00F0C000
00798000
007B0000
007B0000
003E0000
003C0000
003C0000
38180000
7C300000
FC700000
FCE00000
7FC00000
7F800000
1E000000
ENDCHAR

STARTCHAR afii10038
ENCODING 196
SWIDTH 874 0
DWIDTH 33 0
BBX 31 29 2 0
BITMAP
0007FF80
0007FF80
0000F800
0000F000
003FFF80
01FFFFE0
07E0F0F8
0F81F07C
1E01E03C
3C01E03E
3C03E01E
7803C01E
7803C01E
F803C01E
F007C01E
F007801E
F007803C
F007803C
F00F807C
780F0078
780F00F0
3C1F03E0
1E1E0FC0
0FFFFF00
01FFF800
003E0000
003E0000
03FFC000
03FFC000
ENDCHAR

STARTCHAR afii10039
ENCODING 197
SWIDTH 760 0
DWIDTH 29 0
BBX 35 29 -2 0
BITMAP
01FFE0FFE0
01FFE0FFC0
001E001F00
001F003C00
000F003800
000F007000
000780E000
000781C000
0007C38000
0003C70000
0003EE0000
0001EC0000
0001F80000
0000F00000
0000F00000
0001F80000
0003B80000
00073C0000
000E3C0000
001C1E0000
00381E0000
00701F0000
00E00F0000
01C00F8000
0380078000
078007C000
1FC007C000
7FF07FF800
FFF07FF800
ENDCHAR

STARTCHAR afii10040
ENCODING 198
SWIDTH 823 0
DWIDTH 31 0
BBX 35 35 0 -6
BITMAP
03FFC1FFE0
03FFC3FFC0
007C003E00
007C003C00
0078003C00
0078003C00
0078007C00
00F8007800
00F0007800
00F0007800
00F000F800
01F000F000
01E000F000
01E001F000
03E001F000
03E001E000
03C001E000
03C003E000
07C003C000
078003C000
078003C000
078007C000
0F80078000
0F00078000
0F00078000
0F000F8000
1F000F8000
FFFFFFF800
FFFFFFF800
000000F000
0000007000
0000003000
0000007000
0000006000
0000006000
ENDCHAR

STARTCHAR afii10041
ENCODING 199
SWIDTH 779 0
DWIDTH 30 0
BBX 28 29 5 0
BITMAP
FFE0FFF0
FFE0FFF0
1F000F80
1E000F00
1E000F00
3C001E00
3C001E00
3C001E00
7C003E00
78003C00
78003C00
78007C00
7800FC00
7C03F800
3E0F7800
3FFE7800
1FF8F800
07C0F000
0000F000
0000F000
0001E000
0001E000
0001E000
0003E000
0003C000
0003C000
0007C000
003FFC00
003FF800
ENDCHAR

STARTCHAR afii10042
ENCODING 200
SWIDTH 1141 0
DWIDTH 43 0
BBX 47 29 0 0
BITMAP
01FFC3FF8FFE
01FFC7FF0FFC
003C00F803E0
003C00F001E0
007C00F003E0
007800F003C0
007801F003C0
007801E003C0
00F001E00780
00F001E00780
00F003E00780
00F003C00780
01E003C00F00
01E003C00F00
01E007800F00
01E007801F00
03C007801E00
03C00F801E00
03C00F001E00
07C00F003C00
07800F003C00
07801F003C00
07801E003C00
0F801E007800
0F001E007800
0F003E007800
1F003C00F800
FFFFFFFFFF00
FFFFFFFFFF00
ENDCHAR

STARTCHAR afii10043
ENCODING 201
SWIDTH 1132 0
DWIDTH 43 0
BBX 46 35 0 -6
BITMAP
01FFC3FF8FFC
01FFC7FF0FFC
007C00F803E0
003C00F001E0
007C00F003C0
007800F003C0
007801F003C0
007801E00380
00F001E00780
00F001E00780
00F003E00780
00F003C00F00
01E003C00F00
01E007C00F00
01E007800F00
03E007801E00
03C007801E00
03C00F801E00
03C00F001E00
07C00F003C00
07800F003C00
07801F003C00
07801E003C00
0F001E007800
0F001E007800
0F003E007800
1F003C00F800
FFFFFFFFFF80
FFFFFFFFFF80
000000000F80
000000000700
000000000300
000000000300
000000000300
000000000600
ENDCHAR

STARTCHAR afii10044
ENCODING 202
SWIDTH 881 0
DWIDTH 33 0
BBX 29 29 3 0
BITMAP
0FFFF800
1FFFF000
1F078000
3C070000
380F0000
300F0000
700F0000
601E0000
E01E0000
001E0000
001E0000
003C0000
003FFC00
003FFF80
003C07E0
007801F0
007800F0
007800F8
00F800F8
00F000F8
00F000F8
00F000F8
01E001F0
01E001F0
01E003E0
01E007E0
03E00F80
1FFFFF00
1FFFF800
ENDCHAR

STARTCHAR afii10045
ENCODING 203
SWIDTH 1083 0
DWIDTH 41 0
BBX 45 29 -1 0
BITMAP
01FFE000FFF8
01FFC000FFF8
003E00000F80
003C00000F00
003C00000F00
003C00000F00
007C00000F00
007800001E00
007800001E00
007800001E00
00F800003E00
00F000003C00
00F000003C00
00FFF8003C00
01FFFE007800
01E00F807800
01E007C07800
01E003C07800
03C003E0F000
03C003E0F000
03C003E0F000
07C003E0F000
078003E1E000
078007C1E000
078007C1E000
0F800F83E000
0F803F03E000
7FFFFC3FFE00
FFFFE03FFE00
ENDCHAR

STARTCHAR afii10046
ENCODING 204
SWIDTH 739 0
DWIDTH 28 0
BBX 27 29 0 0
BITMAP
01FFC000
03FFC000
003E0000
003C0000
003C0000
007C0000
00780000
00780000
00780000
00F80000
00F00000
00F00000
00F00000
01FFF800
01FFFE00
01E00F80
01E007C0
03E003C0
03C003E0
03C003E0
07C003E0
078003E0
078003E0
078007C0
0F8007C0
0F000F80
0F803F00
FFFFFC00
FFFFE000
ENDCHAR

STARTCHAR afii10047
ENCODING 205
SWIDTH 703 0
DWIDTH 27 0
BBX 25 29 2 0
BITMAP
001FC000
00FFF000
07E07C00
0F801E00
0F001F00
0E000F00
0E000F80
0C000780
1C000780
18000780
18000780
00000780
00000780
00000F80
003FFF80
003FFF80
00000F00
00001F00
00001F00
00003E00
00003E00
C0007C00
C0007800
E000F800
6001F000
3007E000
1C1F8000
0FFF0000
03F80000
ENDCHAR

STARTCHAR afii10048
ENCODING 206
SWIDTH 1133 0
DWIDTH 43 0
BBX 43 29 0 0
BITMAP
03FFC007E000
03FFC03FFC00
007C00F80F00
007C01E00780
007803C003C0
00780F8003C0
00780F0001E0
00F81F0001E0
00F03E0001E0
00F03E0001E0
00F07C0001E0
01F07C0001E0
01E0780003E0
01FFF80003E0
01FFF80003E0
03C0F80003E0
03C0F80007C0
03C0F00007C0
03C0F00007C0
0780F0000F80
0780F0000F00
0780F0001F00
0F8078001E00
0F0078003C00
0F0038007800
0F003C00F000
1F000F03E000
FFF007FF8000
FFF000F80000
ENDCHAR

STARTCHAR afii10049
ENCODING 207
SWIDTH 746 0
DWIDTH 28 0
BBX 33 29 -2 0
BITMAP
0001FFFF80
0007FFFF80
001F807C00
001F007800
003E007800
007C007800
007C00F000
007800F000
007800F000
007801F000
007801E000
007801E000
003C01E000
001E03C000
0003FFC000
000FFFC000
003E03C000
003C078000
0078078000
00F8078000
01F0078000
01F00F0000
03E00F0000
07C00F0000
07C00F0000
0F801E0000
1F001F0000
FF01FFE000
FE01FFE000
ENDCHAR

STARTCHAR afii10065
ENCODING 208
SWIDTH 604 0
DWIDTH 23 0
BBX 21 21 1 0
BITMAP
00F810
03FCF0
07CEF0
0F02E0
1E03E0
1E01E0
3C01C0
3C03C0
7803C0
7803C0
780380
F00780
F00780
F00700
F00F00
F00F18
F01E30
707630
78EE60
3F8FC0
1F0700
ENDCHAR

STARTCHAR afii10066
ENCODING 209
SWIDTH 551 0
DWIDTH 21 0
BBX 22 29 2 0
BITMAP
00000C
001FF8
00FFF8
01FFE0
03E000
070000
0E0000
0C0000
187800
19FE00
370700
260380
2C03C0
7803C0
7803C0
7803C0
F003C0
F003C0
F003C0
E00780
E00780
E00780
E00F00
E00F00
600E00
701C00
303C00
3CF000
0FE000
ENDCHAR

STARTCHAR afii10067
ENCODING 210
SWIDTH 488 0
DWIDTH 19 0
BBX 17 21 1 0
BITMAP
007C00
01FF00
078780
0F0380
1E0380
1C0780
3C0700
3C0E00
783C00
79E000
FFFC00
F81E00
F00F00
F00F00
F00F00
F00F00
701E00
781E00
383C00
1FF800
07C000
ENDCHAR

STARTCHAR afii10068
ENCODING 211
SWIDTH 439 0
DWIDTH 17 0
BBX 17 21 0 0
BITMAP
00FC00
03FF00
0F0F80
1C0780
000780
000780
000F00
001E00
003C00
00F000
03C000
0F0000
3C0000
780000
700000
F00000
F00000
F01E00
787800
7FE000
1F8000
ENDCHAR

STARTCHAR afii10069
ENCODING 212
SWIDTH 542 0
DWIDTH 21 0
BBX 19 30 1 0
BITMAP
008000
00F800
007E00
000F00
000780
0003C0
0001C0
0001E0
0000E0
01F0E0
03FCE0
0F06E0
1E02E0
1C03E0
3C01E0
3801E0
7801E0
7801E0
7001E0
F003C0
F003C0
F003C0
F00780
F00780
700700
700E00
781E00
3C3C00
1FF000
07C000
ENDCHAR

STARTCHAR afii10070
ENCODING 213
SWIDTH 458 0
DWIDTH 17 0
BBX 16 21 1 0
BITMAP
007C
01FE
070F
0E07
1C07
1C07
380F
780E
781E
7878
70F0
F7C0
FF00
F800
F000
F000
F00E
781C
7C78
3FE0
0F80
ENDCHAR

STARTCHAR afii10072
ENCODING 214
SWIDTH 975 0
DWIDTH 37 0
BBX 37 21 0 0
BITMAP
03E00E03C0
0FF80E0FF0
1C781C1C78
383C1C3878
701C1C3878
001C187038
001C387000
001C38E000
001C38E000
001C70E000
003FFFE000
003871C000
003861C000
0078E1C000
0070E1C000
E070E1C000
F0E1C1E070
F1C1C1E0C0
F1C1C0F1C0
7F01807F00
1E03803E00
ENDCHAR

STARTCHAR afii10073
ENCODING 215
SWIDTH 490 0
DWIDTH 19 0
BBX 18 21 0 0
BITMAP
00FE00
07FF80
0783C0
0601C0
0C01C0
0C01C0
0003C0
000380
000E00
01F800
01FC00
000F00
000780
300780
780780
F80780
F00F00
F00F00
701E00
3FF800
0FC000
ENDCHAR

STARTCHAR afii10074
ENCODING 216
SWIDTH 629 0
DWIDTH 24 0
BBX 21 21 3 0
BITMAP
7F00F0
7F00E0
0E00E0
1E01E0
1E01E0
1C01C0
1C03C0
3C03C0
3C0380
380780
780780
780700
700F00
F00F00
F01E00
E03E38
E06E20
E1DC60
F39CC0
FE1F80
7C0E00
ENDCHAR

STARTCHAR afii10075
ENCODING 217
SWIDTH 635 0
DWIDTH 24 0
BBX 21 28 3 0
BITMAP
0070C0
007980
007F00
003E00
000000
000000
000000
7F00F0
7F00F0
1E00E0
0E01E0
1E01E0
1C01C0
1C03C0
3C03C0
3C0380
380780
780780
780700
700F00
700F00
F01E00
E03E38
E06E30
E1DC60
F39CC0
FE1F80
7C0E00
ENDCHAR

STARTCHAR afii10076
ENCODING 218
SWIDTH 594 0
DWIDTH 23 0
BBX 23 21 1 0
BITMAP
3FC01C
3F803E
07807E
0780DC
070080
0F0180
0F0300
0F0600
0E0C00
1FF800
1FF800
1C3C00
3C1C00
3C1E00
3C1E00
380E00
780E00
780F00
700F00
F007E0
F007E0
ENDCHAR

STARTCHAR afii10077
ENCODING 219
SWIDTH 646 0
DWIDTH 25 0
BBX 25 21 -1 0
BITMAP
00FFFF00
00FFFF00
003C0F00
00180E00
00380E00
00301E00
00301E00
00301C00
00203C00
00603C00
00403800
00C07800
00C07800
00807800
01807000
0180F180
0300F300
7300E300
FE00F600
7C00FC00
78007000
ENDCHAR

STARTCHAR afii10078
ENCODING 220
SWIDTH 854 0
DWIDTH 32 0
BBX 32 21 -1 0
BITMAP
01FE003E
03F60036
006E006E
006E00DC
006E00DC
006E01BC
004E0338
00CE0338
00CE0638
008E0C78
018E0C70
018E1870
010E30F0
010E30E0
030F60E0
030F61E3
020FC1E6
F60F81C6
FC0781DC
FC0701F8
780601E0
ENDCHAR

STARTCHAR afii10079
ENCODING 221
SWIDTH 644 0
DWIDTH 24 0
BBX 23 21 1 0
BITMAP
1FC03C
3F803C
078038
078078
078078
070070
0F0070
0F00F0
0E00F0
1FFFE0
1FFFE0
1E01E0
1C01C0
3C03C0
3C03C0
3803C6
78078C
780798
7807B8
7007E0
F003C0
ENDCHAR

STARTCHAR afii10080
ENCODING 222
SWIDTH 531 0
DWIDTH 20 0
BBX 18 21 1 0
BITMAP
00F800
03FE00
078700
0E0380
1E0380
3C03C0
3C03C0
7803C0
7803C0
7803C0
F003C0
F00780
F00780
F00780
F00F00
F00F00
701E00
701C00
387800
1FF000
07C000
ENDCHAR

STARTCHAR afii10081
ENCODING 223
SWIDTH 635 0
DWIDTH 24 0
BBX 22 21 1 0
BITMAP
3F83E0
3F8FF0
079CF0
073070
076070
07C070
0F80F0
0F00E0
0E00E0
1E01E0
1E01E0
1C01C0
1C03C0
3C03C0
3C0380
38078C
780798
780718
700730
7007E0
F00380
ENDCHAR

STARTCHAR afii10082
ENCODING 224
SWIDTH 583 0
DWIDTH 22 0
BBX 25 28 -3 -7
BITMAP
01FC7C00
03F9FE00
003B8F00
007E0700
007C0780
00780780
00700780
00F00780
00F00780
00E00780
01E00F00
01E00F00
01C00F00
01C01E00
03C01E00
03C03C00
03E07C00
03A07800
07B9F000
079FE000
070F8000
0F000000
0F000000
0E000000
0E000000
1E000000
FFE00000
FFE00000
ENDCHAR

STARTCHAR afii10083
ENCODING 225
SWIDTH 458 0
DWIDTH 17 0
BBX 17 21 1 0
BITMAP
007C00
01FF00
078780
0F0780
1E0780
1C0780
3C0000
380000
780000
780000
780000
F00000
F00000
F00000
F00000
F00000
F00700
781C00
7C7800
3FE000
0F8000
ENDCHAR

STARTCHAR afii10084
ENCODING 226
SWIDTH 906 0
DWIDTH 34 0
BBX 34 21 0 0
BITMAP
3FC3E07C00
3F8FF0FE00
079CF39E00
07B0F70E00
0760F60E00
07C0FC1E00
0F80F01E00
0F01E01C00
0E01E03C00
0E01C03C00
1E03C03800
1E03C07800
1C03C07800
3C03807800
3C07807000
380780F1C0
380700F100
780F00E300
780F00E600
700F00FC00
F00E007800
ENDCHAR

STARTCHAR afii10085
ENCODING 227
SWIDTH 510 0
DWIDTH 19 0
BBX 22 28 -2 -7
BITMAP
01C038
03E078
07E07C
06F03C
04F01C
0CF01C
0C7018
007018
007018
007830
007830
007860
007860
0078C0
003980
003980
003B00
003E00
003E00
003C00
003800
003000
006000
70C000
F18000
FF0000
FE0000
380000
ENDCHAR

STARTCHAR afii10086
ENCODING 228
SWIDTH 759 0
DWIDTH 29 0
BBX 28 35 1 -6
BITMAP
000007C0
00001FE0
000038F0
000070E0
00007040
0000E000
0000E000
0001C000
01F1CF80
07F9DFC0
0F8DB1E0
0E05C0E0
1E0780E0
3C0780E0
3C0700E0
380700E0
780F01E0
780E01E0
F00E01E0
F01E01C0
F01C03C0
E01C03C0
E01C0780
E03C0780
E03C0F00
F05C1E00
71F63C00
7F73F800
3E71F000
00E00000
40E00000
E1C00000
F1C00000
FF800000
3E000000
ENDCHAR

STARTCHAR afii10087
ENCODING 229
SWIDTH 573 0
DWIDTH 22 0
BBX 23 21 -1 0
BITMAP
03C03C
07E07E
06F0FE
0CF0CC
087980
187B00
003E00
003E00
003C00
003C00
001C00
003E00
006E00
004E00
00CF00
018F0C
030F0C
730718
FE07B0
FC03F0
7803C0
ENDCHAR

STARTCHAR afii10088
ENCODING 230
SWIDTH 635 0
DWIDTH 24 0
BBX 20 27 3 -6
BITMAP
7F00F0
7F00E0
0E00E0
1E01E0
1E01E0
1C01C0
1C03C0
3C03C0
3C0380
380780
780780
780700
700F00
F00F00
F01E00
E03E30
E06E20
E1DC60
F39CA0
FE1FA0
7C0F60
0000C0
0000C0
0001C0
000380
000F00
000C00
ENDCHAR

STARTCHAR afii10089
ENCODING 231
SWIDTH 602 0
DWIDTH 23 0
BBX 20 21 3 0
BITMAP
FE01C0
FE03C0
1C03C0
1C0380
3C0380
3C0780
380780
780700
780F00
781F00
7C7E00
3FCE00
1F9E00
001E00
001C00
003C70
003CC0
0038C0
003B80
003F00
001E00
ENDCHAR

STARTCHAR afii10090
ENCODING 232
SWIDTH 896 0
DWIDTH 34 0
BBX 31 21 2 0
BITMAP
3F80F01E
7F80E01C
0780E03C
0F01E03C
0F01E038
0F01C078
1E03C078
1E03C070
1E0380F0
1C0780F0
3C0780F0
3C0700E0
380701E0
780F03E0
781E07C0
703E0FC6
F07E1DC4
F0DE3B8C
F39E73D8
7F0FC3F0
3C0F81E0
ENDCHAR

STARTCHAR afii10091
ENCODING 233
SWIDTH 895 0
DWIDTH 34 0
BBX 31 27 2 -6
BITMAP
3F80F01E
7F80E01C
0780E03C
0F01E03C
0F01E038
0F01C078
1E03C078
1E03C070
1E038070
1C0380F0
3C0780F0
3C0700E0
380701E0
780F03E0
781F07C0
703E0FC6
F06E1DCC
F0DE3B8C
F39E7394
7F0FC3FC
3C0F81E8
00000018
00000038
00000038
00000070
000001E0
00000100
ENDCHAR

STARTCHAR afii10092
ENCODING 234
SWIDTH 573 0
DWIDTH 22 0
BBX 18 22 2 0
BITMAP
1C3000
7FF000
7FB000
EE6000
80E000
00E000
01C000
038000
073C00
0E7F00
0F8780
1F03C0
1E03C0
3E03C0
3C03C0
3C03C0
3C0780
3C0780
1C0F00
1E1E00
0FFC00
03E000
ENDCHAR

STARTCHAR afii10093
ENCODING 235
SWIDTH 798 0
DWIDTH 30 0
BBX 27 22 2 0
BITMAP
01000000
FF001FE0
3E0007C0
1E0003C0
1E000380
1C000780
3C000780
3C000700
38F80700
7BFC0F00
7E1E0F00
7C0F0E00
F80F1E00
F00F1E00
F00F1C00
E00F3C60
E01E3C60
E01E3CC0
E03C39C0
70F83D80
3FF03F00
0F801E00
ENDCHAR

STARTCHAR afii10094
ENCODING 236
SWIDTH 521 0
DWIDTH 20 0
BBX 16 22 2 0
BITMAP
0100
FF00
3E00
1E00
1E00
1C00
1C00
3C00
38F0
7BFC
7E1E
7C0E
F80F
F00F
F00F
E00F
E01E
E01E
F03C
70F8
3FF0
0F80
ENDCHAR

STARTCHAR afii10095
ENCODING 237
SWIDTH 448 0
DWIDTH 17 0
BBX 17 21 0 0
BITMAP
01F800
07FE00
0E0F00
1C0700
380780
000780
000780
000780
000780
01FF80
01FF80
000F00
000F00
000F00
001E00
701C00
F03C00
F07800
F8F000
7FE000
1F8000
ENDCHAR

STARTCHAR afii10096
ENCODING 238
SWIDTH 805 0
DWIDTH 31 0
BBX 29 21 1 0
BITMAP
3F801F00
7F80FFC0
0F81E0E0
0703C070
0F078070
0F0F0078
0E0F0078
0E1E0078
1E1E0078
1FFE0078
1FFE00F8
3C3C00F0
3C3C00F0
383C00F0
783C01E0
783C01E0
781C03C0
701C0780
F00E0F00
F00F1E00
E003F800
ENDCHAR

STARTCHAR afii10097
ENCODING 239
SWIDTH 592 0
DWIDTH 22 0
BBX 23 21 -2 0
BITMAP
001FFC
007FFC
01F03C
01E038
03C038
03C078
03C078
03C070
01C0F0
01E0F0
003FE0
00FFE0
01E1E0
01C1C0
0381C0
0781C6
0F03C4
0F038C
1E0398
FC03F0
FC01E0
ENDCHAR

STARTCHAR afii61352
ENCODING 240
SWIDTH 1000 0
DWIDTH 38 0
BBX 40 29 -1 0
BITMAP
00000007C0
00FE000FE0
007E001FE0
000F003FE0
001F0031C0
001F003000
001F806000
0037806000
00378060FC
003780C3CE
0033C0C706
0063C0C707
0063C0CE07
0061E18E07
00C1E19E07
00C1E19C0E
00C1E19C0E
00C0F31C0E
0180F31C1C
0180F30C38
0180F60E70
01807E03E0
03007E0000
03007E0000
67003C0000
FE003C0000
FE003C0000
FC003C1FE0
7000003FC0
ENDCHAR

STARTCHAR afii10071
ENCODING 241
SWIDTH 462 0
DWIDTH 18 0
BBX 18 28 1 0
BITMAP
018180
03C3C0
03C3C0
018180
000000
000000
000000
007C00
01FE00
078F00
0E0700
1E0700
1C0700
3C0F00
380E00
781E00
783C00
78F000
F3C000
FF0000
F80000
F00000
F00000
700E00
781C00
3C7800
3FE000
0FC000
ENDCHAR

STARTCHAR afii10099
ENCODING 242
SWIDTH 563 0
DWIDTH 21 0
BBX 20 35 1 -6
BITMAP
0FF000
0FE000
01E000
01E000
1FFFE0
1FFFC0
03C000
03C000
0383E0
078FE0
079CF0
0730F0
0F60F0
0F80F0
0F00F0
0E00E0
1E01E0
1C01E0
1C01E0
3C03C0
3C03C0
3803C0
780780
780780
700700
700F00
F00E00
F01E00
E01C00
003C00
003800
007000
01E000
07C000
070000
ENDCHAR

STARTCHAR afii10100
ENCODING 243
SWIDTH 510 0
DWIDTH 19 0
BBX 22 29 -1 0
BITMAP
000070
0000F0
0001F0
0007C0
000E00
000800
000000
000000
07FFFC
07FFFC
00F038
00F038
00E018
01E010
01E030
01C000
03C000
03C000
038000
078000
078000
078000
070000
0F0000
0F0000
0E0000
1F0000
FFC000
FFC000
ENDCHAR

STARTCHAR afii10101
ENCODING 244
SWIDTH 469 0
DWIDTH 18 0
BBX 17 21 1 0
BITMAP
007C00
01FE00
078F00
0F0780
1E0780
1C0700
3C0000
780000
780000
7FE000
FFC000
F00000
F00000
F00000
F00000
F00000
F00E00
781C00
7C7800
3FE000
1F8000
ENDCHAR

STARTCHAR afii10102
ENCODING 245
SWIDTH 448 0
DWIDTH 17 0
BBX 16 21 0 0
BITMAP
03FC
071E
0E0F
1C0F
1C07
1E02
1E00
1F80
0FC0
07E0
03F8
00F8
007C
003C
401C
E01C
F01C
F038
F878
7FE0
0F80
ENDCHAR

STARTCHAR afii10103
ENCODING 246
SWIDTH 344 0
DWIDTH 13 0
BBX 10 29 3 0
BITMAP
0380
07C0
07C0
07C0
0380
0000
0000
0000
7F80
FF00
1F00
0F00
0E00
1E00
1E00
1C00
3C00
3C00
3C00
3800
7800
7800
7000
F1C0
F180
E300
E600
FC00
7800
ENDCHAR

STARTCHAR afii10104
ENCODING 247
SWIDTH 344 0
DWIDTH 13 0
BBX 11 28 3 0
BITMAP
60C0
F1E0
F1E0
60C0
0000
0000
0000
7F00
FF00
1E00
0E00
1E00
1E00
1C00
1C00
3C00
3800
3800
3800
7800
7000
7000
F180
F300
E700
EE00
FC00
7000
ENDCHAR

STARTCHAR afii10105
ENCODING 248
SWIDTH 344 0
DWIDTH 13 0
BBX 17 36 -5 -7
BITMAP
000700
000F80
000F80
000F80
000700
000000
000000
000000
000700
00FF00
001F00
000E00
000E00
001E00
001E00
001C00
001C00
003C00
003C00
003800
003800
007800
007800
007000
007000
00F000
00F000
00E000
00E000
01E000
01E000
61C000
F1C000
F38000
FF0000
3E0000
ENDCHAR

STARTCHAR afii10106
ENCODING 249
SWIDTH 850 0
DWIDTH 32 0
BBX 32 21 -1 0
BITMAP
00FFFF00
01FFFE00
003C1E00
00381E00
00301C00
00303C00
00203C00
006038F8
00407BFC
00407E1E
00C07C0F
0080780F
0080F00F
0180F00F
0100E00F
0300E01E
0300E01E
F600F03C
FC0070F8
FC003FF0
78000F80
ENDCHAR

STARTCHAR afii10107
ENCODING 250
SWIDTH 845 0
DWIDTH 32 0
BBX 30 21 1 0
BITMAP
1FC03C00
3F803800
07803800
07807800
07807800
07007000
0F00F000
0F00F3E0
0E00EFF0
1FFFF878
1FFFF03C
1E01E03C
1C03C03C
3C03C03C
3C03803C
38038078
78038078
7803C0F0
7001C3E0
7000FFC0
F0003E00
ENDCHAR

STARTCHAR afii10108
ENCODING 251
SWIDTH 635 0
DWIDTH 24 0
BBX 22 29 1 0
BITMAP
07F000
07F000
00E000
00E000
0FFFE0
0FFFE0
01C000
03C000
03C3E0
038FF0
039CF0
07B070
076070
07C070
0F80F0
0F00E0
0E00E0
0E01E0
1E01E0
1C01C0
1C03C0
3C03C0
3C0380
38078C
380798
780718
700730
7007E0
F003C0
ENDCHAR

STARTCHAR afii10109
ENCODING 252
SWIDTH 594 0
DWIDTH 23 0
BBX 23 29 1 0
BITMAP
0000E0
0001E0
0003E0
000F80
003C00
001000
000000
000000
3FC01C
3F803E
07807E
0780DC
070080
0F0180
0F0300
0F0600
0E0C00
1FF800
1FF800
1C3C00
3C1C00
3C1E00
3C1E00
380E00
780E00
780F00
700F00
F007E0
F007E0
ENDCHAR

STARTCHAR section
ENCODING 253
SWIDTH 489 0
DWIDTH 19 0
BBX 20 36 0 -7
BITMAP
001F00
007FC0
00E1E0
00C0F0
01C0F0
01C060
01C000
01E000
01E000
00F000
00F800
01FC00
073C00
0E3E00
0E1F00
1C0F00
1C0F80
1E0780
1E0780
1F0380
0F0380
0F8700
07C700
03DC00
01F800
01F000
00F000
007800
007800
003800
703800
F03800
F03000
787000
3FC000
0F0000
ENDCHAR

STARTCHAR afii10110
ENCODING 254
SWIDTH 510 0
DWIDTH 19 0
BBX 22 35 -2 -7
BITMAP
001C18
001E30
000FE0
0007C0
000000
000000
000000
01C038
03E078
07E07C
06F03C
04F01C
0CF01C
0C7018
007018
007018
007830
007830
007860
007860
0078C0
003980
003980
003B00
003E00
003E00
003C00
003800
003000
006000
70C000
F18000
FF0000
FE0000
380000
ENDCHAR

STARTCHAR afii10193
ENCODING 255
SWIDTH 635 0
DWIDTH 24 0
BBX 22 27 2 -6
BITMAP
7F8078
7F0070
0F00F0
0F00F0
1E00E0
1E01E0
1E01E0
3C01E0
3C01C0
3C03C0
7803C0
780380
780780
F00F80
F01F00
F03F1C
E07730
E0EE30
F38E60
7F0FC0
3E0700
180000
380000
380000
380000
F00000
600000
ENDCHAR
ENDFONT
